<?xml version="1.0" standalone="no"?>
<!DOCTYPE svg PUBLIC "-//W3C//DTD SVG 20010904//EN"
 "http://www.w3.org/TR/2001/REC-SVG-20010904/DTD/svg10.dtd">
<svg version="1.0" xmlns="http://www.w3.org/2000/svg"
 width="800.000000pt" height="800.000000pt" viewBox="0 0 800.000000 800.000000"
 preserveAspectRatio="xMidYMid meet">
<metadata>
Created by potrace 1.11, written by Peter Selinger 2001-2013
</metadata>
<g transform="translate(0.000000,800.000000) scale(0.100000,-0.100000)"
fill="#000000" stroke="none">
<path d="M4018 6061 c-53 -17 -98 -53 -126 -99 l-27 -47 -3 -943 -2 -943 -56
61 c-155 167 -405 298 -633 331 -132 19 -364 7 -479 -25 -420 -117 -724 -456
-824 -919 -29 -138 -32 -419 -5 -547 55 -258 161 -457 336 -631 178 -178 372
-282 621 -336 107 -23 399 -25 505 -4 488 97 852 456 968 956 20 87 21 121 26
1175 l6 1085 34 70 c47 98 168 217 272 268 115 56 212 78 354 79 398 1 652
-210 704 -586 6 -42 11 -188 11 -324 0 -148 5 -263 11 -287 16 -60 92 -129
158 -145 110 -26 212 18 264 115 21 38 22 52 22 345 0 326 -7 407 -51 558
-133 458 -525 742 -1026 742 -271 0 -553 -102 -724 -262 l-32 -30 -4 99 c-3
63 -10 109 -20 128 -21 39 -64 83 -102 102 -35 18 -139 26 -178 14z"/>
</g>
</svg>
